<svg fill="none" height="100%" width="100%" viewBox="0 0 500 500" xmlns:xlink="http://www.w3.org/1999/xlink" xmlns="http://www.w3.org/2000/svg"><g transform="matrix(6.178,0,0,6.178,230,230)" id="i0"><g id="i1"><rect height="100" width="100" y="-50" x="-50" fill-rule="evenodd" fill="#126dff" fill-opacity="0" /></g></g><g transform="matrix(1,0,0,1,0,0)" id="i2"><g opacity="0"><animate repeatCount="indefinite" attributeName="opacity" dur="2s" begin="0s" fill="freeze" values="0; 0; 0.32; 0; 0" keyTimes="0; 0.3; 0.833333; 0.983333; 1" keySplines="0 0 1 1; 0 0 1 1; 0 0 1 1; 0 0 1 1" calcMode="spline" /><g transform="translate(268,229)"><g transform="scale(0.651,0.61)"><animateTransform repeatCount="indefinite" type="scale" attributeName="transform" dur="2s" begin="0s" calcMode="spline" values="0.651 0.61; 0.651 0.61; 1.05 0.985; 1.173 1.1; 1.173 1.1" keyTimes="0; 0.3; 0.766667; 0.983334; 1" keySplines="0 0 1 1; 0 0 1 1; 0 0 1 1; 0 0 1 1" fill="freeze" /><g id="i3" transform="translate(-267.98,-229.064)"><path fill="#e9f8fe" d="M163.071,114.042C174.963,93.464,196.941,80.788,220.725,80.788C220.725,80.788,315.236,80.788,315.236,80.788C339.02,80.788,360.997,93.464,372.889,114.042C372.889,114.042,420.145,195.811,420.145,195.811C432.037,216.388,432.037,241.74,420.145,262.318C420.145,262.318,372.889,344.086,372.889,344.086C360.997,364.664,339.02,377.34,315.236,377.34C315.236,377.34,220.725,377.34,220.725,377.34C196.94,377.34,174.963,364.664,163.071,344.086C163.071,344.086,115.815,262.318,115.815,262.318C103.923,241.74,103.923,216.388,115.815,195.811C115.815,195.811,163.071,114.042,163.071,114.042C163.071,114.042,163.071,114.042,163.071,114.042Z" /></g></g></g></g><g><g transform="translate(268.227,335.475)"><g transform="scale(1,0.98)"><animateTransform repeatCount="indefinite" type="scale" attributeName="transform" dur="2s" begin="0s" calcMode="spline" values="1 0.98; 1 0.98; 1 1; 1 0.98; 1 0.98" keyTimes="0; 0.133333; 0.316667; 0.483333; 1" keySplines="0 0 1 1; 0.65 0 0.36 1; 0.65 0 0.36 1; 0 0 1 1" fill="freeze" /><g id="i4" transform="translate(-268.227,-335.475)"><path fill="#ffbf00" d="M188.964,153.696C200.06,134.491,220.565,122.66,242.757,122.66C242.757,122.66,293.696,122.66,293.696,122.66C315.888,122.66,336.393,134.491,347.489,153.696C347.489,153.696,372.959,197.782,372.959,197.782C384.055,216.987,384.055,240.649,372.959,259.854C372.959,259.854,347.489,303.939,347.489,303.939C336.393,323.144,315.888,334.975,293.696,334.975C293.696,334.975,242.757,334.975,242.757,334.975C220.565,334.975,200.06,323.144,188.964,303.939C188.964,303.939,163.494,259.854,163.494,259.854C152.398,240.649,152.398,216.987,163.494,197.782C163.494,197.782,188.964,153.696,188.964,153.696C188.964,153.696,188.964,153.696,188.964,153.696Z" /></g></g></g></g><g><g transform="translate(152.217,410.352)"><g transform="scale(1,1)"><animateTransform repeatCount="indefinite" type="scale" attributeName="transform" dur="2s" begin="0s" calcMode="spline" values="1 1; 1 1; 1.11 1.11; 1 1; 1 1" keyTimes="0; 0.516667; 0.75; 0.983333; 1" keySplines="0 0 1 1; 0.65 0 0.36 1; 0.65 0 0.36 1; 0 0 1 1" fill="freeze" /><g id="i5" transform="translate(-152.217,-410.352)"><path fill="#e9f8fe" d="M243.857,297.145C251.719,310.804,251.719,327.62,243.857,341.279C243.857,341.279,217.128,387.718,217.128,387.718C209.245,401.413,194.658,409.852,178.869,409.852C178.869,409.852,125.565,409.852,125.565,409.852C109.776,409.852,95.188,401.413,87.306,387.718C87.306,387.718,60.576,341.279,60.576,341.279C52.714,327.62,52.714,310.804,60.576,297.145C60.576,297.145,87.306,250.706,87.306,250.706C95.188,237.011,109.776,228.571,125.565,228.571C125.565,228.571,178.869,228.571,178.869,228.571C194.658,228.571,209.245,237.011,217.128,250.706C217.128,250.706,243.857,297.145,243.857,297.145C243.857,297.145,243.857,297.145,243.857,297.145Z" /></g></g></g></g><g><g transform="translate(291.495,410.352)"><g transform="scale(1,1)"><animateTransform repeatCount="indefinite" type="scale" attributeName="transform" dur="2s" begin="0s" calcMode="spline" values="1 1; 1 1; 1.11 1.11; 1 1; 1 1" keyTimes="0; 0.283334; 0.516667; 0.75; 1" keySplines="0 0 1 1; 0.65 0 0.36 1; 0.65 0 0.36 1; 0 0 1 1" fill="freeze" /><g id="i5" transform="translate(-291.495,-410.352)"><path fill="#e9f8fe" d="M220.428,361.253C212.895,348.193,212.895,332.102,220.428,319.042C220.428,319.042,236.288,291.549,236.288,291.549C243.821,278.489,257.744,270.443,272.811,270.443C272.811,270.443,304.529,270.443,304.529,270.443C319.596,270.443,333.519,278.489,341.052,291.549C341.052,291.549,356.911,319.042,356.911,319.042C364.445,332.102,364.445,348.193,356.911,361.253C356.911,361.253,341.052,388.747,341.052,388.747C333.519,401.807,319.596,409.852,304.529,409.852C304.529,409.852,272.811,409.852,272.811,409.852C257.744,409.852,243.821,401.807,236.288,388.747C236.288,388.747,220.428,361.253,220.428,361.253C220.428,361.253,220.428,361.253,220.428,361.253Z" /></g></g></g></g><g><g transform="translate(395.494,410.352)"><g transform="scale(1,1)"><animateTransform repeatCount="indefinite" type="scale" attributeName="transform" dur="2s" begin="0s" calcMode="spline" values="1 1; 1 1; 1.11 1.11; 1 1; 1 1" keyTimes="0; 0.1; 0.283333; 0.516667; 1" keySplines="0 0 1 1; 0.65 0 0.36 1; 0.65 0 0.36 1; 0 0 1 1" fill="freeze" /><g id="i5" transform="translate(-395.494,-410.352)"><path fill="#e9f8fe" d="M337.293,371.462C330.262,359.248,330.262,344.2,337.293,331.986C337.293,331.986,348.03,313.334,348.03,313.334C355.062,301.12,368.057,293.596,382.12,293.596C382.12,293.596,403.594,293.596,403.594,293.596C417.657,293.596,430.652,301.12,437.683,313.334C437.683,313.334,448.421,331.986,448.421,331.986C455.452,344.2,455.452,359.248,448.421,371.462C448.421,371.462,437.683,390.114,437.683,390.114C430.652,402.328,417.657,409.852,403.594,409.852C403.594,409.852,382.12,409.852,382.12,409.852C368.057,409.852,355.062,402.328,348.03,390.114C348.03,390.114,337.293,371.462,337.293,371.462C337.293,371.462,337.293,371.462,337.293,371.462Z" /></g></g></g></g><g><g transform="translate(250.637,203.179)"><g transform="scale(1,1)"><animateTransform repeatCount="indefinite" type="scale" attributeName="transform" dur="2s" begin="0s" calcMode="spline" values="1 1; 1 1; 1 0.311; 1 1; 1 1" keyTimes="0; 0.233333; 0.466667; 0.716667; 1" keySplines="0.65 0 0.36 1; 0.65 0 0.36 1; 0 0 0.36 1; 0.65 0 1 1" fill="freeze" /><g id="i6" transform="translate(-250.637,-203.179)"><path fill="#262626" d="M240.755,206.134C239.699,204.305,239.699,202.052,240.755,200.223C240.755,200.223,243.136,196.098,243.136,196.098C244.192,194.269,246.144,193.143,248.256,193.143C248.256,193.143,253.018,193.143,253.018,193.143C255.13,193.143,257.082,194.269,258.137,196.098C258.137,196.098,260.519,200.223,260.519,200.223C261.575,202.052,261.575,204.305,260.519,206.134C260.519,206.134,258.137,210.258,258.137,210.258C257.082,212.087,255.13,213.214,253.018,213.214C253.018,213.214,248.256,213.214,248.256,213.214C246.144,213.214,244.192,212.087,243.136,210.258C243.136,210.258,240.755,206.134,240.755,206.134C240.755,206.134,240.755,206.134,240.755,206.134Z" /></g></g></g></g><g><g transform="translate(285.402,203.179)"><g transform="scale(1,1)"><animateTransform repeatCount="indefinite" type="scale" attributeName="transform" dur="2s" begin="0s" calcMode="spline" values="1 1; 1 1; 1 0.31; 1 1; 1 1" keyTimes="0; 0.233333; 0.466667; 0.716667; 1" keySplines="0 0 1 1; 0.65 0 0.36 1; 0 0 0.36 1; 0 0 1 1" fill="freeze" /><g id="i7" transform="translate(-285.402,-203.179)"><path fill="#262626" d="M275.52,206.134C274.464,204.305,274.464,202.052,275.52,200.223C275.52,200.223,277.901,196.098,277.901,196.098C278.957,194.269,280.909,193.143,283.02,193.143C283.02,193.143,287.783,193.143,287.783,193.143C289.895,193.143,291.846,194.269,292.902,196.098C292.902,196.098,295.283,200.223,295.283,200.223C296.339,202.052,296.339,204.305,295.283,206.134C295.283,206.134,292.902,210.258,292.902,210.258C291.846,212.087,289.895,213.214,287.783,213.214C287.783,213.214,283.02,213.214,283.02,213.214C280.909,213.214,278.957,212.087,277.901,210.258C277.901,210.258,275.52,206.134,275.52,206.134C275.52,206.134,275.52,206.134,275.52,206.134Z" /></g></g></g></g><g><g transform="translate(267.812,213.461)"><g transform="scale(1,1.45)"><animateTransform repeatCount="indefinite" type="scale" attributeName="transform" dur="2s" begin="0s" calcMode="spline" values="1 1.45; 1 1.45; 1 0.35; 1 1.45; 1 1.45" keyTimes="0; 0.233333; 0.466667; 0.716667; 1" keySplines="0 0 1 1; 0.65 0 0.36 1; 0.65 0 0.36 1; 0 0 1 1" fill="freeze" /><g id="i8" transform="translate(-267.812,-215.301)"><path fill="#ff7100" d="M278,215.801C279.573,215.801,280.833,217.18,279.857,218.414C279.201,219.243,278.241,219.996,277.031,220.63C275.82,221.264,274.383,221.767,272.801,222.11C271.219,222.453,269.524,222.63,267.812,222.63C266.1,222.63,264.405,222.453,262.823,222.11C261.242,221.767,259.804,221.264,258.594,220.63C257.383,219.996,256.423,219.243,255.768,218.414C254.792,217.18,256.051,215.801,257.625,215.801C257.625,215.801,278,215.801,278,215.801C278,215.801,278,215.801,278,215.801Z" /></g></g></g></g><g opacity="0"><animate repeatCount="indefinite" attributeName="opacity" dur="2s" begin="0s" fill="freeze" values="0; 0; 1; 0; 0" keyTimes="0; 0.233333; 0.5; 0.633333; 1" keySplines="0 0 1 1; 0.65 0 0.36 1; 0.65 0 0.36 1; 0 0 1 1" calcMode="spline" /><g transform="translate(79,135)"><g transform="rotate(64.852)"><animateTransform repeatCount="indefinite" type="rotate" attributeName="transform" dur="2s" begin="0s" calcMode="spline" values="64.852; 64.852; 0; 64.852; 64.852" keyTimes="0; 0.233333; 0.5; 0.633333; 1" keySplines="0 0 1 1; 0.65 0 0.36 1; 0.65 0 0.36 1; 0 0 1 1" fill="freeze" /><g transform="scale(0.524,0.524)"><animateTransform repeatCount="indefinite" type="scale" attributeName="transform" dur="2s" begin="0s" calcMode="spline" values="0.524 0.524; 0.524 0.524; 1 1; 0.35 0.35; 0.35 0.35" keyTimes="0; 0.233333; 0.5; 0.633333; 1" keySplines="0 0 1 1; 0.65 0 0.36 1; 0.65 0 0.36 1; 0 0 1 1" fill="freeze" /><g id="i9" transform="translate(-79.31,-134.729)"><path fill="#d6fef1" d="M79.31,121.675C78.199,128.357,73.063,133.597,66.502,134.729C73.059,135.861,78.199,141.096,79.31,147.783C80.421,141.101,85.557,135.861,92.118,134.729C85.562,133.597,80.421,128.357,79.31,121.675C79.31,121.675,79.31,121.675,79.31,121.675Z" /></g></g></g></g></g><g opacity="0"><animate repeatCount="indefinite" attributeName="opacity" dur="2s" begin="0s" fill="freeze" values="0; 0; 1; 0" keyTimes="0; 0.6; 0.766667; 1" keySplines="0 0 1 1; 0.65 0 0.36 1; 0.65 0 0.36 1" calcMode="spline" /><g transform="translate(101.232,163.793)"><g transform="rotate(64.852)"><animateTransform repeatCount="indefinite" type="rotate" attributeName="transform" dur="2s" begin="0s" calcMode="spline" values="64.852; 64.852; 0; 64.852" keyTimes="0; 0.6; 0.766667; 1" keySplines="0 0 1 1; 0.65 0 0.36 1; 0.65 0 0.36 1" fill="freeze" /><g transform="scale(0.524,0.524)"><animateTransform repeatCount="indefinite" type="scale" attributeName="transform" dur="2s" begin="0s" calcMode="spline" values="0.524 0.524; 0.524 0.524; 1 1; 0.35 0.35" keyTimes="0; 0.6; 0.766667; 1" keySplines="0 0 1 1; 0.65 0 0.36 1; 0.65 0 0.36 1" fill="freeze" /><g id="i9" transform="translate(-101.232,-163.793)"><path fill="#d6fef1" d="M101.232,141.379C99.33,152.853,90.54,161.849,79.311,163.793C90.532,165.737,99.33,174.726,101.232,186.207C103.133,174.733,111.924,165.737,123.153,163.793C111.931,161.849,103.133,152.853,101.232,141.379C101.232,141.379,101.232,141.379,101.232,141.379Z" /></g></g></g></g></g><g opacity="0"><animate repeatCount="indefinite" attributeName="opacity" dur="2s" begin="0s" fill="freeze" values="0; 1; 0; 0; 0" keyTimes="0; 0.283333; 0.516666; 0.633333; 1" keySplines="0.65 0 0.36 1; 0.65 0 0.36 1; 0.65 0 0.36 1; 0 0 1 1" calcMode="spline" /><g transform="translate(122.907,121.428)"><g transform="rotate(64.852)"><animateTransform repeatCount="indefinite" type="rotate" attributeName="transform" dur="2s" begin="0s" calcMode="spline" values="64.852; 0; 64.852; 64.852" keyTimes="0; 0.283333; 0.516667; 1" keySplines="0.65 0 0.36 1; 0.65 0 0.36 1; 0 0 1 1" fill="freeze" /><g transform="scale(0.524,0.524)"><animateTransform repeatCount="indefinite" type="scale" attributeName="transform" dur="2s" begin="0s" calcMode="spline" values="0.524 0.524; 1 1; 0.35 0.35; 0.35 0.35" keyTimes="0; 0.283333; 0.516667; 1" keySplines="0.65 0 0.36 1; 0.65 0 0.36 1; 0 0 1 1" fill="freeze" /><g id="i9" transform="translate(-122.907,-121.428)"><path fill="#d6fef1" d="M122.906,99.015C121.005,110.489,112.214,119.485,100.985,121.429C112.207,123.373,121.005,132.361,122.906,143.842C124.808,132.369,133.599,123.373,144.828,121.429C133.606,119.485,124.808,110.489,122.906,99.015C122.906,99.015,122.906,99.015,122.906,99.015Z" /></g></g></g></g></g><g id="i5" transform="matrix(1,0,0,1,0,0)"><rect height="54.68" width="266.995" y="354.68" x="136.062" fill="#e9f8fe" /></g></g></svg>